<?xml version="1.0" encoding="UTF-8" standalone="no"?>
<!-- Created with Inkscape (http://www.inkscape.org/) -->

<svg
   width="274.01828mm"
   height="267.09067mm"
   viewBox="0 0 274.01828 267.09067"
   version="1.1"
   id="svg1"
   xml:space="preserve"
   xmlns="http://www.w3.org/2000/svg"
   xmlns:svg="http://www.w3.org/2000/svg"><defs
     id="defs1" /><g
     id="layer1"
     transform="translate(615.33967,-1220.5436)"><rect
       style="fill:none;stroke:none;stroke-width:0.177624;stroke-linecap:square;stroke-dasharray:none;stroke-opacity:0.996078;paint-order:markers fill stroke"
       id="rect10-1-2"
       width="270.93332"
       height="270.93332"
       x="-615.78888"
       y="1220.5636"
       ry="0" /><path
       style="fill:#000000;stroke-width:1.49744"
       d="m -483.01738,1477.362 -3.00997,-11.2151 -4.51018,-0.4999 c -12.83094,-1.422 -24.5324,-4.8769 -36.60205,-10.807 -20.75497,-10.1972 -37.71162,-26.3568 -48.90281,-46.6041 -6.9206,-12.5208 -11.53976,-27.464 -12.72154,-41.1547 -0.24457,-2.8328 -0.51974,-5.6854 -0.61155,-6.3391 l -0.16686,-1.1886 -9.40867,-1.7519 c -5.17476,-0.9635 -11.10238,-2.0555 -13.1725,-2.4267 -2.07011,-0.3713 -3.49644,-0.7696 -3.16955,-0.8853 0.32683,-0.1155 6.20264,-1.2199 13.05733,-2.4538 6.85467,-1.234 12.60447,-2.331 12.7773,-2.4378 0.1729,-0.1069 0.31426,-1.0661 0.31426,-2.1316 0,-3.1671 1.1357,-10.9194 2.43267,-16.6056 3.46577,-15.1944 10.75915,-30.218 20.78779,-42.8206 3.81245,-4.791 13.52297,-14.3399 18.18199,-17.8794 15.21351,-11.558 31.01652,-18.5691 48.93014,-21.7082 3.88032,-0.68 12.71062,-1.6773 12.95449,-1.4631 0.0431,0.038 -0.39412,2.3909 -0.97132,5.2293 l -1.04944,5.1608 -5.44079,0.6849 c -42.49417,5.3494 -77.69614,39.0391 -84.71341,81.074 -1.24229,7.4418 -1.38209,9.1241 -0.75763,9.119 0.29748,-10e-4 4.49283,-0.7772 9.32297,-1.7218 l 8.78205,-1.7173 7.85814,-6.8871 c 4.322,-3.7879 10.21957,-8.9858 13.10576,-11.5508 2.88617,-2.565 5.34816,-4.6637 5.47114,-4.6637 0.12289,0 2.47408,1.2582 5.22472,2.796 l 5.00117,2.7959 6.56408,-6.4615 c 3.61027,-3.5539 8.92513,-8.7751 11.81081,-11.6028 l 5.24672,-5.1411 2.5066,2.4843 2.50659,2.4843 0.48657,-2.691 c 0.26762,-1.48 3.31905,-17.6672 6.78097,-35.9714 3.46189,-18.3043 6.94103,-36.8462 7.73142,-41.2043 0.79037,-4.3582 1.56219,-8.2456 1.71515,-8.6386 0.1625,-0.4173 1.25183,4.887 2.61857,12.7498 l 2.34049,13.4645 3.00275,0.245 c 28.65,2.3375 52.22567,12.9114 71.4163,32.031 8.76858,8.736 15.2527,17.801 20.73749,28.9912 6.00662,12.2548 9.32375,23.8031 10.54992,36.7286 0.25421,2.6795 0.50179,4.9245 0.5502,4.9887 0.0483,0.064 5.91592,1.1607 13.03891,2.4366 7.12305,1.2758 13.01712,2.3858 13.09793,2.4666 0.0809,0.081 -5.5917,1.1914 -12.60557,2.468 -7.0139,1.2766 -12.95525,2.3985 -13.20298,2.4932 -0.25802,0.099 -0.56484,1.6427 -0.71816,3.6137 -2.07621,26.6965 -12.67298,50.254 -31.10977,69.1597 -19.52567,20.0223 -44.40361,31.6571 -71.50497,33.4413 l -4.3383,0.2856 -2.2564,9.9049 c -1.24104,5.4477 -2.41224,10.4982 -2.60268,11.2235 -0.30732,1.1703 -0.68476,0.057 -3.35626,-9.8965 z m 3.23104,-25.7501 c 0.26188,-5.0894 0.60839,-19.7725 0.77002,-32.6291 0.19657,-15.6379 0.44324,-23.8345 0.74516,-24.7622 0.85892,-2.6394 1.99977,-3.8907 7.06149,-7.7451 5.86307,-4.4646 8.26936,-6.6437 9.11562,-8.255 0.55142,-1.0498 0.53847,-1.2268 -0.15938,-2.179 -1.26003,-1.7193 -4.18772,-3.4367 -9.14898,-5.3666 -4.69821,-1.8277 -6.41085,-2.9961 -6.41085,-4.3739 0,-2.5662 11.22638,-8.5709 24.16793,-12.9269 3.15966,-1.0634 5.47739,-1.9339 5.15055,-1.9343 -1.27922,0 -11.97113,1.9635 -17.15077,3.1521 -7.5089,1.723 -13.87903,3.5762 -19.71602,5.7357 -6.57168,2.4313 -8.70473,3.6305 -9.67417,5.4392 -0.77139,1.4391 -0.77156,1.4656 -0.0145,2.3017 0.421,0.4652 2.28761,1.6709 4.14803,2.6794 8.59468,4.6588 10.71305,6.2795 10.71072,8.1942 -0.001,2.1041 -1.6308,4.1666 -7.06808,8.9534 -3.55633,3.1308 -9.17445,9.4819 -9.17445,10.3714 0,0.4696 3.78089,17.5336 12.88584,58.1564 1.24541,5.5566 2.36414,10.3704 2.48609,10.6973 0.28894,0.7747 0.68751,-4.0692 1.27613,-15.5087 z m -8.85117,3.1276 c -0.11726,-0.4903 -1.31892,-5.7944 -2.67078,-11.7869 -1.35181,-5.9924 -4.2791,-18.8835 -6.50504,-28.6468 l -4.0472,-17.7515 4.73179,-4.7609 c 2.60248,-2.6185 4.64505,-4.8476 4.53906,-4.9536 -0.10603,-0.106 -1.05898,0.3309 -2.11776,0.9708 -3.19304,1.9299 -53.05834,28.597 -53.47404,28.597 -0.52196,0 19.81768,-29.1623 26.89469,-38.5607 1.94067,-2.5773 3.46806,-4.7443 3.39413,-4.8155 -0.14525,-0.14 -22.97967,-4.5314 -45.30072,-8.712 -7.62676,-1.4284 -14.38353,-2.704 -15.01505,-2.8345 l -1.14821,-0.2372 0.26703,3.1148 c 1.97575,23.0454 12.42586,45.2983 29.00381,61.7619 15.37014,15.2642 34.03624,25.0454 54.76304,28.6962 2.33034,0.4105 4.83572,0.7607 5.56754,0.7783 1.18493,0.029 1.30729,-0.065 1.11771,-0.8594 z m 23.11673,0.4777 c 18.06183,-2.2257 35.69054,-9.7196 50.30646,-21.3849 19.98829,-15.9532 33.66715,-40.1101 36.78819,-64.9682 0.98421,-7.8388 0.98864,-8.0196 0.19021,-7.7836 -0.39957,0.1181 -1.88538,0.4154 -3.30179,0.6606 -1.41641,0.2452 -10.7765,2.0213 -20.80026,3.9468 -17.1612,3.2966 -22.17064,4.1854 -32.99776,5.8545 l -4.47165,0.6893 3.07441,4.1601 c 7.63053,10.325 28.23083,38.8819 27.96032,38.7597 -1.91299,-0.8644 -47.00088,-23.6012 -47.96402,-24.1872 -0.71964,-0.4378 -1.37225,-0.7312 -1.45024,-0.6518 -0.14573,0.1483 -4.46816,19.7389 -10.12283,45.8807 -1.76469,8.1583 -3.45021,15.8693 -3.74558,17.1355 l -0.53706,2.3022 h 1.85714 c 1.02145,0 3.36798,-0.1862 5.21446,-0.4137 z m 37.73067,-55.3321 c -4.33858,-3.5095 -10.37315,-8.5848 -19.83813,-16.6846 -2.90098,-2.4826 -5.33171,-4.4507 -5.40161,-4.3736 -0.5832,0.643 -3.36606,6.7899 -3.1975,7.0626 0.11946,0.1933 5.51849,3.1639 11.99787,6.6013 6.47938,3.4375 13.65267,7.2696 15.94072,8.516 2.28801,1.2463 4.29529,2.2796 4.46058,2.2962 0.16525,0.017 -1.61755,-1.5215 -3.96193,-3.4179 z m -100.15787,-3.7092 c 4.4328,-3.9487 11.34881,-10.2597 22.32761,-20.3742 0.77288,-0.7121 -6.0582,-2.0563 -6.89988,-1.3578 -1.18837,0.9863 -22.34514,27.1287 -22.34514,27.6108 0,0.2715 0.28592,0.029 6.91741,-5.8788 z m 5.89225,-30.2379 c 2.46743,-2.0039 7.86164,-5.4236 12.54686,-7.9542 l 4.16004,-2.247 -35.45949,0.2618 c -19.50275,0.144 -36.14712,0.2617 -36.98748,0.2615 -0.84036,-10e-5 -1.37524,0.1295 -1.18858,0.288 0.18665,0.1586 5.2423,1.2169 11.23475,2.3518 5.99246,1.1349 18.11604,3.4718 26.94131,5.1931 8.82525,1.7213 16.28336,3.1424 16.57355,3.1579 0.29015,0.014 1.27076,-0.5752 2.17904,-1.3129 z m 144.03817,-21.0164 c -1.03585,-10.8445 -4.94817,-23.6584 -10.41143,-34.1002 -15.94238,-30.4704 -45.83396,-50.2711 -80.19353,-53.1215 l -3.28946,-0.2728 0.21509,0.9444 c 0.22499,0.988 1.36774,6.8779 6.37114,32.8381 2.42694,12.5923 6.9025,34.6924 7.91956,39.1065 0.17144,0.7438 4.75313,4.4751 5.49502,4.4751 0.13594,0 0.24686,-6.3959 0.24686,-14.2131 v -14.2131 l -2.20471,-2.4708 c -1.34452,-1.5069 -2.11742,-2.6983 -1.98098,-3.0539 0.12303,-0.3206 0.22371,-3.2427 0.22371,-6.4935 v -5.9105 h 2.57527 2.57527 v 2.4 2.3999 l 1.68385,-0.1218 1.68383,-0.1218 -0.0993,-2.08 -0.0993,-2.08 h 3.16977 3.16978 v 2.179 2.1791 h 1.58481 1.58475 v -2.1791 -2.179 h 3.16955 3.16959 v 2.179 2.1791 h 1.62144 1.62145 l -0.1358,-2.1796 -0.13578,-2.1796 3.07052,5e-4 3.07051,6e-4 v 2.179 2.1791 h 1.78285 1.7829 v -2.1791 -2.179 h 2.37719 2.37717 v 6.6898 6.6898 l -1.75643,2.1335 -1.75638,2.1335 -0.1255,16.1372 c -0.0691,8.8755 -0.0365,16.1348 0.0728,16.1319 0.1089,-10e-4 2.87224,-1.9642 6.14067,-4.3583 3.26841,-2.3942 6.03559,-4.3531 6.14931,-4.3531 0.11361,0 1.80757,1.6176 3.76421,3.5946 1.95658,1.9771 5.64356,5.5547 8.19322,7.9503 l 4.63574,4.3556 4.87298,0.9276 c 2.6801,0.5102 5.1488,0.9441 5.486,0.9642 0.52508,0.031 0.5727,-0.3858 0.33181,-2.9076 z m -151.35422,-4.7551 c 0.0796,0.072 0.25804,0.6497 0.3962,1.2834 l 0.25121,1.152 12.44456,-8.4642 c 6.84451,-4.6552 12.51199,-8.3967 12.59446,-8.3142 0.0823,0.083 -0.65322,3.0022 -1.63473,6.4886 -2.19946,7.8122 -2.60013,9.5663 -2.23633,9.7912 0.1565,0.097 2.05435,-1.3603 4.21752,-3.2377 5.03197,-4.3673 12.77309,-10.8314 14.00199,-11.6921 l 0.94965,-0.6652 -1.72358,-2.2967 c -0.94796,-1.2632 -3.62984,-4.2497 -5.95975,-6.6366 l -4.23617,-4.34 -2.91724,2.3358 c -5.72637,4.5849 -11.45164,9.8065 -16.31527,14.88 l -4.93838,5.1514 -5.23478,-2.3798 -5.23481,-2.3799 -6.79345,5.5998 c -3.7364,3.0799 -7.0171,5.8029 -7.29044,6.0513 -0.29899,0.2716 3.48948,-0.1283 9.5087,-1.0035 5.50311,-0.8002 10.07089,-1.3958 10.15064,-1.3236 z m 58.00513,-21.6377 -7.90351,-8.7797 -0.26201,-17.2586 c -0.14397,-9.4922 -0.2827,-21.3745 -0.30799,-26.4051 -0.0255,-5.0306 -0.13086,-8.79 -0.23418,-8.3542 -0.10351,0.4358 -1.51767,6.9434 -3.14258,14.4612 -1.62489,7.5178 -4.3006,19.6211 -5.94604,26.8963 l -2.9917,13.2275 4.88665,4.8984 c 2.68767,2.6941 5.06759,4.8978 5.28881,4.8972 0.22116,-7e-4 1.61808,-0.6137 3.10425,-1.3623 l 2.7021,-1.361 6.20516,4.1097 c 3.41284,2.2604 6.2725,4.0424 6.35486,3.9601 0.0823,-0.082 -3.40689,-4.1006 -7.75382,-8.9295 z m 39.11592,-2.6772 v -4.2804 l -1.38483,-1.3423 -1.38482,-1.3422 -1.19045,1.1406 c -1.18578,1.136 -1.19045,1.1581 -1.19045,5.6226 v 4.4821 h 2.57527 2.57528 z m -98.37397,-10.0504 c -5.62123,-8.0777 -10.16758,-14.733 -10.103,-14.7896 0.31868,-0.2792 28.35722,18.6862 28.23301,19.0969 -0.18379,0.6077 -7.44704,10.3868 -7.71146,10.3826 -0.1089,-10e-4 -4.79732,-6.6122 -10.41855,-14.6899 z"
       id="path8-6-2-3" /></g></svg>
